<svg width="50" height="50" viewBox="0 0 50 50" fill="none" xmlns="http://www.w3.org/2000/svg">
<g clip-path="url(#clip0_1311_5)">
<rect width="50" height="50" rx="25" fill="#2C3D33"/>
<path d="M32.1027 25.9543H17.8947C17.3642 25.9543 16.9355 25.5257 16.9355 24.9951C16.9355 24.4646 17.3642 24.0359 17.8947 24.0359H29.7857L23.9646 18.2149C23.5899 17.8402 23.5899 17.2317 23.9646 16.857C24.3393 16.4823 24.9478 16.4823 25.3225 16.857L32.7831 24.3177C33.0589 24.5935 33.1398 25.0041 32.99 25.3638C32.8401 25.7205 32.4894 25.9543 32.1027 25.9543Z" fill="white"/>
<path d="M24.6332 33.4241C24.3875 33.4241 24.1417 33.3311 23.9558 33.1423C23.5811 32.7676 23.5811 32.1591 23.9558 31.7844L31.4255 24.3148C31.8002 23.9401 32.4087 23.9401 32.7833 24.3148C33.158 24.6894 33.158 25.2979 32.7833 25.6726L25.3137 33.1423C25.1248 33.3311 24.879 33.4241 24.6332 33.4241Z" fill="white"/>
</g>
<defs>
<clipPath id="clip0_1311_5">
<rect width="50" height="50" fill="white"/>
</clipPath>
</defs>
</svg>
