<svg width="40" height="40" viewBox="0 0 40 40" fill="none" xmlns="http://www.w3.org/2000/svg">
<g clip-path="url(#clip0_1361_29)">
<path d="M36.2467 38.7796L34.6842 1.12335C34.6583 0.495605 34.1416 0 33.5136 0H27.9786C27.5333 0 27.1143 0.252991 26.9141 0.679932C26.8394 0.839844 26.8067 1.01654 26.8067 1.19293V9.41406H13.2691L13.2694 1.17188C13.2694 0.727539 13.017 0.309448 12.5916 0.108337C12.4317 0.032959 12.2553 0 12.0786 0H6.56257C5.93421 0 5.41785 0.495605 5.39161 1.12335L3.82911 38.7796C3.81049 39.234 4.05677 39.671 4.48982 39.884C4.65339 39.9646 4.83558 40 5.01777 40H35.0495C35.2375 40 35.4258 39.9643 35.5936 39.8804C36.0224 39.6661 36.2656 39.2313 36.2467 38.7796ZM16.3813 28.0405C16.28 28.0679 16.1777 28.0807 16.0773 28.0807C15.5601 28.0807 15.0864 27.7356 14.9461 27.2119L14.7999 26.6666L12.7409 30.0723H15.2705C15.9174 30.0723 16.4423 30.5969 16.4423 31.2442C16.4423 31.8912 15.9174 32.4161 15.2705 32.4161H10.6629C10.2399 32.4161 9.84992 32.1881 9.6421 31.8198C9.43427 31.4514 9.44129 30.9998 9.6598 30.6378L12.7103 25.5927L12.3215 25.6967C11.6965 25.8643 11.0538 25.4935 10.8863 24.8682C10.7188 24.2432 11.0899 23.6005 11.7152 23.4329L14.9168 22.5751C15.2171 22.4948 15.5369 22.5369 15.806 22.6923C16.0752 22.8476 16.2714 23.1036 16.352 23.4036L17.2098 26.6055C17.3777 27.2305 17.0066 27.8729 16.3813 28.0405ZM17.0301 20.7434C16.4768 20.4074 16.3004 19.6869 16.6361 19.1336L19.0345 15.1822C19.2466 14.8325 19.6259 14.6188 20.0355 14.6185H20.0364C20.445 14.6185 20.8244 14.8315 21.0371 15.1807L24.2258 20.415L24.3735 19.8636C24.5411 19.2383 25.1844 18.8681 25.8088 19.0347C26.4338 19.2023 26.8049 19.845 26.6373 20.47L25.7795 23.6716C25.6391 24.1953 25.1655 24.5407 24.6482 24.5407C24.5478 24.5407 24.4459 24.5276 24.3442 24.5004L21.1426 23.6426C20.5173 23.475 20.1466 22.8323 20.3138 22.2073C20.4816 21.582 21.1249 21.2119 21.749 21.3785L22.1305 21.4807L20.0382 18.046L18.6399 20.3494C18.3039 20.9027 17.5834 21.0791 17.0301 20.7434ZM30.4343 31.8188C30.2268 32.1878 29.8362 32.4158 29.4132 32.4158H22.7885L23.129 32.756C23.5865 33.2138 23.5865 33.9557 23.129 34.4135C22.9002 34.6423 22.6002 34.7568 22.3002 34.7568C22.0005 34.7568 21.7005 34.6423 21.4716 34.4135L19.1279 32.0697C18.6701 31.6122 18.6701 30.8701 19.1279 30.4123L21.4716 28.0685C21.9294 27.6111 22.6713 27.6111 23.129 28.0685C23.5865 28.5263 23.5865 29.2682 23.129 29.726L22.7827 30.072H27.3313L25.9971 27.8732C25.6614 27.3199 25.8378 26.5991 26.3911 26.2634C26.9443 25.9277 27.6652 26.1041 28.0009 26.6574L30.4148 30.6363C30.6345 30.9979 30.6419 31.4499 30.4343 31.8188Z" fill="white"/>
</g>
<defs>
<clipPath id="clip0_1361_29">
<rect width="40" height="40" fill="white"/>
</clipPath>
</defs>
</svg>
