<svg width="41" height="40" viewBox="0 0 41 40" fill="none" xmlns="http://www.w3.org/2000/svg">
<g clip-path="url(#clip0_1361_167)">
<path d="M8.65039 26.3596H19.0613L21.7384 23.6826H11.3275L8.65039 26.3596Z" fill="white"/>
<path d="M13.6719 21.3391H24.0829L26.7599 18.6621H16.349L13.6719 21.3391Z" fill="white"/>
<path d="M0.21582 38.8278C0.21582 39.475 0.740508 39.9996 1.3877 39.9996C3.98863 39.9996 6.43402 38.9867 8.2734 37.1472L11.6971 33.7236H1.65691C0.71832 35.2431 0.21582 36.9965 0.21582 38.8278Z" fill="white"/>
<path d="M3.62988 31.3802H14.0408L16.7179 28.7031H6.30699L3.62988 31.3802Z" fill="white"/>
<path d="M18.6924 16.3181H29.1033L29.8586 15.5629L24.6532 10.3574L18.6924 16.3181Z" fill="white"/>
<path d="M37.6712 6.09535C37.2141 5.63793 36.4715 5.63762 36.0137 6.09535L35.0675 7.04199L33.1744 5.14894L34.1209 4.20207C34.5784 3.74441 34.5783 3.00254 34.1207 2.54496C30.7274 -0.84832 25.2062 -0.84832 21.813 2.54496C21.3553 3.00254 21.3553 3.74457 21.813 4.20223L36.0138 18.4036C36.471 18.8609 37.2136 18.8612 37.6712 18.4035C41.064 15.0101 41.064 9.48871 37.6712 6.09535Z" fill="white"/>
</g>
<defs>
<clipPath id="clip0_1361_167">
<rect width="40" height="40" fill="white" transform="translate(0.21582)"/>
</clipPath>
</defs>
</svg>
