<svg width="40" height="40" viewBox="0 0 40 40" fill="none" xmlns="http://www.w3.org/2000/svg">
<g clip-path="url(#clip0_1361_151)">
<path d="M33.0469 5C33.0469 4.69336 32.9267 4.39898 32.7122 4.17992L28.9622 0.351797C28.8531 0.240419 28.7228 0.151935 28.579 0.0915276C28.4353 0.0311202 28.2809 3.56577e-06 28.125 0L8.125 0C7.47781 0 6.95312 0.524687 6.95312 1.17188V12.5781H33.0469V5ZM8.82812 32.5C8.82812 33.1472 9.35281 33.6719 10 33.6719C10.6472 33.6719 11.1719 33.1472 11.1719 32.5V27.2656H8.82812V32.5ZM13.8281 29.375C13.8281 30.0222 14.3528 30.5469 15 30.5469C15.6472 30.5469 16.1719 30.0222 16.1719 29.375V27.2656H13.8281V29.375ZM23.8281 29.375C23.8281 30.0222 24.3528 30.5469 25 30.5469C25.6472 30.5469 26.1719 30.0222 26.1719 29.375V27.2656H23.8281V29.375ZM18.8281 32.5C18.8281 33.1472 19.3528 33.6719 20 33.6719C20.6472 33.6719 21.1719 33.1472 21.1719 32.5V27.2656H18.8281V32.5ZM28.8281 32.5C28.8281 33.1472 29.3528 33.6719 30 33.6719C30.6472 33.6719 31.1719 33.1472 31.1719 32.5V27.2656H28.8281V32.5Z" fill="white"/>
<path d="M38.75 14.9219H1.25C0.602812 14.9219 0.078125 15.4466 0.078125 16.0938V38.8281C0.078125 39.4753 0.602812 40 1.25 40C1.89719 40 2.42188 39.4753 2.42188 38.8281V24.9219H37.5781V38.8281C37.5781 39.4753 38.1028 40 38.75 40C39.3972 40 39.9219 39.4753 39.9219 38.8281V16.0938C39.9219 15.4466 39.3972 14.9219 38.75 14.9219ZM5 21.2498C4.35281 21.2498 3.82812 20.7252 3.82812 20.0779C3.82812 19.4307 4.35281 18.906 5 18.906C5.64719 18.906 6.17188 19.4307 6.17188 20.0779C6.17188 20.7252 5.64719 21.2498 5 21.2498ZM10 21.2498C9.35281 21.2498 8.82812 20.7252 8.82812 20.0779C8.82812 19.4307 9.35281 18.906 10 18.906C10.6472 18.906 11.1719 19.4307 11.1719 20.0779C11.1719 20.7252 10.6472 21.2498 10 21.2498ZM35 21.25H28.75C28.1028 21.25 27.5781 20.7253 27.5781 20.0781C27.5781 19.4309 28.1028 18.9062 28.75 18.9062H35C35.6472 18.9062 36.1719 19.4309 36.1719 20.0781C36.1719 20.7253 35.6472 21.25 35 21.25Z" fill="white"/>
</g>
<defs>
<clipPath id="clip0_1361_151">
<rect width="40" height="40" fill="white"/>
</clipPath>
</defs>
</svg>
