<svg width="40" height="40" viewBox="0 0 40 40" fill="none" xmlns="http://www.w3.org/2000/svg">
<g clip-path="url(#clip0_1361_20)">
<path d="M31.4053 25.3281C33.1664 23.919 34.2947 21.752 34.2947 19.3212C34.2947 15.0744 30.8521 11.6318 26.6054 11.6318C22.3587 11.6318 18.916 15.0744 18.916 19.3212C18.916 23.5679 22.3586 27.0105 26.6054 27.0105C27.5945 27.0105 28.54 26.8236 29.4086 26.4834L30.6771 28.6805C30.9552 28.4085 31.2664 28.1725 31.6034 27.9782C31.9405 27.7837 32.3008 27.6327 32.6758 27.5286L31.4053 25.3281ZM30.1382 18.8047L26.5134 22.4295C26.063 22.8799 25.3327 22.8799 24.8823 22.4295L23.0699 20.6171C22.6194 20.1666 22.6194 19.4364 23.0699 18.9859C23.5203 18.5355 24.2506 18.5355 24.701 18.9859L25.6979 19.9828L28.5071 17.1736C28.9575 16.7231 29.6878 16.7231 30.1382 17.1736C30.5887 17.624 30.5887 18.3542 30.1382 18.8047ZM38.9837 36.1476L35.9079 30.8202C35.271 29.7169 33.8601 29.3389 32.7568 29.9759C31.6534 30.6128 31.2754 32.0237 31.9124 33.127L34.9881 38.4544C35.6251 39.5577 37.036 39.9357 38.1393 39.2987C39.2427 38.6617 39.6207 37.2509 38.9837 36.1476Z" fill="white"/>
<path d="M17.5074 23.4606H5.72344C5.10237 23.4606 4.56796 22.9833 4.53874 22.363C4.5076 21.7006 5.03532 21.1538 5.69084 21.1538H16.7783C16.6658 20.5495 16.6093 19.936 16.6093 19.3213C16.6093 19.1623 16.6135 19.0043 16.6209 18.847H5.72344C5.10237 18.847 4.56796 18.3697 4.53874 17.7494C4.5076 17.087 5.03532 16.5402 5.69084 16.5402H17.0033C17.238 15.732 17.5744 14.9569 18.0043 14.2334H5.72344C5.10237 14.2334 4.56796 13.7561 4.53874 13.1358C4.5076 12.4734 5.03532 11.9266 5.69084 11.9266H19.8868C21.6631 10.3113 24.0212 9.32514 26.6055 9.32514V1.54598C26.6055 0.908995 26.0891 0.392578 25.4521 0.392578H1.07723C0.440245 0.392578 -0.0761719 0.908918 -0.0761719 1.54598V38.4549C-0.0761719 39.0918 0.440245 39.6083 1.07723 39.6083H25.4521C26.0891 39.6083 26.6055 39.0918 26.6055 38.4549V29.3174C22.5691 29.3174 19.0842 26.9126 17.5074 23.4606ZM5.69084 7.31299H16.4559C17.0929 7.31299 17.6093 7.82941 17.6093 8.46639C17.6093 9.10338 17.0929 9.6198 16.4559 9.6198H5.69084C5.05385 9.6198 4.53744 9.10338 4.53744 8.46639C4.53744 7.82941 5.05385 7.31299 5.69084 7.31299ZM4.53744 26.9208C4.53744 26.2838 5.05385 25.7674 5.69084 25.7674H16.4559C17.0929 25.7674 17.6093 26.2838 17.6093 26.9208C17.6093 27.5578 17.0929 28.0742 16.4559 28.0742H5.69084C5.05385 28.0742 4.53744 27.5578 4.53744 26.9208ZM22.2229 31.5344C22.2229 32.1714 21.7065 32.6878 21.0695 32.6878H13.3802C12.7432 32.6878 12.2268 32.1714 12.2268 31.5344C12.2268 30.8975 12.7432 30.381 13.3802 30.381H21.0695C21.7065 30.381 22.2229 30.8975 22.2229 31.5344ZM26.6055 9.32514V9.32591C26.6248 9.32545 26.6442 9.32514 26.6055 9.32514Z" fill="white"/>
<path d="M26.6061 9.32735V9.3252C26.5869 9.32573 26.5678 9.3265 26.6061 9.32735ZM26.6061 29.3167C26.6449 29.3167 26.6254 29.3164 26.6061 29.3159V29.3167ZM26.6061 29.3159V29.3138C26.5678 29.3147 26.5869 29.3153 26.6061 29.3159Z" fill="white"/>
</g>
<defs>
<clipPath id="clip0_1361_20">
<rect width="39.2157" height="40" fill="white"/>
</clipPath>
</defs>
</svg>
