<svg width="41" height="41" viewBox="0 0 41 41" fill="none" xmlns="http://www.w3.org/2000/svg">
<g clip-path="url(#clip0_1361_25)">
<path d="M6.23574 9.77344C4.21824 10.5209 2.77637 12.4642 2.77637 14.7383C2.77637 17.2457 4.52926 19.3514 6.87387 19.8949V21.6603C6.87387 21.9773 6.99978 22.2812 7.2239 22.5054C7.44802 22.7295 7.75199 22.8554 8.06894 22.8554C8.34394 22.8554 8.61613 22.7609 8.83527 22.5777L11.8843 20.031H16.9972C19.0657 20.031 20.8598 18.8375 21.7299 17.1038H15.4997C11.0042 17.1034 7.22699 13.9705 6.23574 9.77344Z" fill="white"/>
<path d="M28.4266 0.457031H15.4997C11.5693 0.457031 8.37195 3.65469 8.37195 7.585C8.37195 11.5154 11.5693 14.7127 15.4997 14.7127H23.0967L27.6606 18.5247C27.8756 18.7042 28.1468 18.8025 28.4269 18.8023C28.7438 18.8023 29.0478 18.6764 29.2719 18.4523C29.496 18.2282 29.6219 17.9242 29.6219 17.6073V14.6126C32.9853 14.0426 35.5546 11.1083 35.5546 7.585C35.5546 3.65469 32.3569 0.457031 28.4266 0.457031ZM14.3877 35.3695C13.6286 34.0886 12.5169 33.0776 11.2198 32.4291C12.7097 30.674 12.628 28.0321 10.9718 26.3762C9.22828 24.6325 6.39132 24.6327 4.64789 26.3762C3.8032 27.2206 3.33812 28.3437 3.33812 29.5381C3.33812 30.6093 3.71312 31.6225 4.39953 32.4294C3.10281 33.0776 1.99101 34.0889 1.23211 35.3695C0.610153 36.4184 0.6007 37.6796 1.2064 38.7431C1.81812 39.8162 2.91906 40.457 4.15203 40.457H11.4677C12.7005 40.457 13.802 39.8162 14.4132 38.7431C15.019 37.6796 15.0096 36.4184 14.3877 35.3695ZM39.1398 34.4475C38.1226 32.7315 36.5937 31.4061 34.8163 30.6194C35.8345 29.601 36.3953 28.2473 36.3953 26.8071C36.3953 25.367 35.8344 24.013 34.8161 22.9943C32.7134 20.892 29.2927 20.8922 27.1903 22.9943C26.1719 24.013 25.611 25.3667 25.611 26.8071C25.611 28.2473 26.1719 29.6013 27.19 30.6194C25.4127 31.4061 23.8837 32.7315 22.8666 34.4475C22.1323 35.6859 22.1213 37.1752 22.837 38.4313C23.5597 39.6999 24.8609 40.457 26.3178 40.457H35.6886C37.1455 40.457 38.4467 39.6999 39.1697 38.4313C39.885 37.1752 39.8741 35.6859 39.1398 34.4475Z" fill="white"/>
</g>
<defs>
<clipPath id="clip0_1361_25">
<rect width="40" height="40" fill="white" transform="translate(0.758789 0.457031)"/>
</clipPath>
</defs>
</svg>
